Coordinates
version=1
nRows=27
nColumns=34
inDegrees=no

Units are S.I. units (second, meters, Newtons, ...)
If the header above contains a line with 'inDegrees', this indicates whether rotational values are in degrees (yes) or radians (no).

endheader
time	pelvis_tilt	pelvis_list	pelvis_rotation	pelvis_tx	pelvis_ty	pelvis_tz	hip_flexion_r	hip_adduction_r	hip_rotation_r	knee_angle_r	ankle_angle_r	subtalar_angle_r	mtp_angle_r	hip_flexion_l	hip_adduction_l	hip_rotation_l	knee_angle_l	ankle_angle_l	subtalar_angle_l	mtp_angle_l	lumbar_extension	lumbar_bending	lumbar_rotation	arm_flex_r	arm_add_r	arm_rot_r	elbow_flex_r	pro_sup_r	arm_flex_l	arm_add_l	arm_rot_l	elbow_flex_l	pro_sup_l
1.55	0.00700082	0.0901856	-0.113851	1.04607	0.92381	-0.223889	0.475548	-0.0791075	-0.058244	0.388191	0.196341	0.14712	-0.0120676	-0.12132	0.130293	-0.00249371	0.0892637	0.293409	0.0374232	-0.0120698	-0.429757	-0.460333	-0.173191	-0.0402407	-0.23906	0.148569	0.774824	2.14363	0.17168	-0.321614	-0.103264	0.843128	2.09168
1.56	0.00733967	0.0919196	-0.108864	1.0556	0.922477	-0.223819	0.468985	-0.0766374	-0.0607694	0.331659	0.199051	0.171997	-0.0120642	-0.136512	0.131787	-7.39691e-05	0.0844689	0.300784	0.0481366	-0.0120662	-0.431597	-0.456258	-0.172523	-0.0390852	-0.237007	0.147826	0.774758	2.14366	0.168613	-0.321461	-0.0994411	0.838194	2.09046
1.57	0.00745293	0.0938334	-0.103999	1.06528	0.921031	-0.22374	0.462377	-0.0741953	-0.0621833	0.27699	0.200931	0.192549	-0.0120607	-0.151811	0.133359	0.00316168	0.0792457	0.306779	0.0575139	-0.0120627	-0.432832	-0.451957	-0.171394	-0.0380118	-0.235246	0.147572	0.774421	2.144	0.165218	-0.321046	-0.0959184	0.831916	2.08963
1.58	0.00748171	0.0957566	-0.0993108	1.07513	0.919497	-0.223647	0.455629	-0.0716244	-0.0621912	0.225019	0.201983	0.207554	-0.0120573	-0.167423	0.134853	0.00726976	0.0735301	0.311289	0.0653122	-0.0120592	-0.433585	-0.447262	-0.169732	-0.0369425	-0.23379	0.147707	0.773717	2.14451	0.161488	-0.320352	-0.0925991	0.824415	2.08872
1.59	0.00763072	0.0974994	-0.0948274	1.08515	0.917909	-0.223537	0.448585	-0.0688107	-0.0607208	0.176701	0.202386	0.216272	-0.0120538	-0.1836	0.136094	0.0121881	0.0673309	0.314349	0.0714854	-0.0120557	-0.434054	-0.441979	-0.1675	-0.0358244	-0.232637	0.148037	0.772607	2.14508	0.157414	-0.31935	-0.0894536	0.815824	2.08736
1.6	0.00813714	0.0988744	-0.090551	1.09537	0.916304	-0.223413	0.441088	-0.065698	-0.0579631	0.133076	0.202485	0.218562	-0.0120503	-0.200591	0.136909	0.017743	0.0607408	0.316116	0.0761662	-0.0120521	-0.434467	-0.435906	-0.164692	-0.0346361	-0.231777	0.148297	0.771109	2.14559	0.152981	-0.317998	-0.0865269	0.806264	2.08534
1.61	0.00923635	0.0997122	-0.0864549	1.1058	0.914723	-0.22328	0.433031	-0.0622841	-0.0543548	0.0951669	0.202725	0.214893	-0.0120469	-0.218594	0.137138	0.0236617	0.053941	0.316841	0.0796386	-0.0120486	-0.435051	-0.428841	-0.161333	-0.0333877	-0.231196	0.148198	0.769289	2.14599	0.148172	-0.316235	-0.0839283	0.795822	2.08268
1.62	0.0111345	0.0998655	-0.0824862	1.11645	0.913194	-0.22315	0.424365	-0.0585985	-0.0504846	0.0638242	0.203534	0.206212	-0.0120434	-0.23772	0.136639	0.0295894	0.0471957	0.316827	0.0823067	-0.0120451	-0.436001	-0.420599	-0.157462	-0.0321155	-0.230889	0.147469	0.767243	2.14627	0.142981	-0.313992	-0.0818046	0.784541	2.07966
1.63	0.0139892	0.0992062	-0.0785709	1.12732	0.911743	-0.223036	0.415088	-0.0546682	-0.0469328	0.0395474	0.20516	0.193699	-0.01204	-0.25798	0.135277	0.035109	0.0408372	0.316393	0.0846639	-0.0120416	-0.437463	-0.411003	-0.153128	-0.0308735	-0.23086	0.145906	0.765077	2.14652	0.137409	-0.311199	-0.0803007	0.772423	2.07669
1.64	0.0178964	0.0976207	-0.0746242	1.13842	0.91039	-0.222952	0.405205	-0.0504858	-0.0440846	0.0223487	0.207517	0.178438	-0.0120365	-0.279277	0.132921	0.0397633	0.0352459	0.31584	0.0872649	-0.0120381	-0.439528	-0.399897	-0.148371	-0.0297213	-0.231123	0.143399	0.762877	2.14686	0.131469	-0.307796	-0.0795172	0.759447	2.07424
1.65	0.0228576	0.0950272	-0.0705672	1.14974	0.909146	-0.222906	0.394746	-0.0460069	-0.0420567	0.011777	0.210108	0.161247	-0.0120331	-0.301391	0.12945	0.0430719	0.0308435	0.315425	0.0906987	-0.0120346	-0.44221	-0.38716	-0.143219	-0.0287108	-0.231693	0.139945	0.760692	2.14745	0.125181	-0.303755	-0.0794842	0.745594	2.07268
1.66	0.0287718	0.0913934	-0.0663453	1.16127	0.908005	-0.222905	0.383823	-0.0411686	-0.0407473	0.00714127	0.212071	0.14266	-0.0120296	-0.323938	0.124777	0.0445481	0.0280904	0.315343	0.0955562	-0.0120311	-0.445417	-0.372743	-0.137684	-0.027872	-0.232573	0.135649	0.758506	2.14844	0.118561	-0.299091	-0.0801525	0.730879	2.07228
1.67	0.0354291	0.0867308	-0.0619406	1.17301	0.90699	-0.222936	0.372688	-0.0359159	-0.0399611	0.00776136	0.212316	0.123028	-0.0120262	-0.346361	0.118865	0.043728	0.0274798	0.315714	0.102386	-0.0120275	-0.448935	-0.356698	-0.131764	-0.0272026	-0.233744	0.130701	0.756245	2.14996	0.111621	-0.293867	-0.081401	0.715377	2.07308
1.68	0.0425017	0.0811174	-0.0573874	1.18494	0.906097	-0.222988	0.361759	-0.0302185	-0.039549	0.0131422	0.209748	0.102673	-0.0120228	-0.367953	0.111727	0.0402156	0.0295275	0.316559	0.111633	-0.012024	-0.452446	-0.33917	-0.125442	-0.0266655	-0.235161	0.125346	0.753786	2.15202	0.104361	-0.288197	-0.0830587	0.699235	2.07494
1.69	0.0495808	0.0746743	-0.0527662	1.19704	0.905317	-0.223043	0.351594	-0.0240863	-0.0395105	0.0230168	0.203513	0.0820252	-0.0120193	-0.387899	0.103416	0.0337382	0.0347575	0.317785	0.123574	-0.0120205	-0.455554	-0.320379	-0.118696	-0.0261947	-0.236756	0.119838	0.750993	2.15454	0.0967705	-0.282224	-0.0849418	0.682674	2.0775
1.7	0.0562214	0.0675411	-0.0481899	1.20927	0.904641	-0.22308	0.342834	-0.0175702	-0.0400259	0.0372674	0.19323	0.0616791	-0.0120159	-0.405347	0.0939924	0.0241997	0.0436872	0.319154	0.138245	-0.012017	-0.45784	-0.300581	-0.111509	-0.0257079	-0.238448	0.114409	0.747758	2.15733	0.088828	-0.276092	-0.0868981	0.66598	2.08027
1.71	0.062004	0.0598319	-0.0437818	1.22162	0.904056	-0.22308	0.336071	-0.0107369	-0.041404	0.0557748	0.179125	0.0423426	-0.0120124	-0.419499	0.0834808	0.0117031	0.0568124	0.320274	0.155425	-0.0120135	-0.458924	-0.28	-0.103876	-0.025125	-0.240163	0.109219	0.744046	2.16006	0.0805019	-0.26992	-0.088845	0.649476	2.08275
1.72	0.0666122	0.0515759	-0.0396524	1.23406	0.903557	-0.223027	0.33171	-0.00361413	-0.0439682	0.0782926	0.162053	0.0246725	-0.012009	-0.429709	0.0718097	-0.00348815	0.0745954	0.32061	0.174679	-0.01201	-0.458541	-0.258754	-0.0957991	-0.0243901	-0.241855	0.104334	0.739932	2.16239	0.0717572	-0.263767	-0.0907919	0.63349	2.0845
1.73	0.0698584	0.0427068	-0.0358867	1.24656	0.903148	-0.222914	0.329903	0.00383152	-0.04799	0.104409	0.143422	0.00921482	-0.0120056	-0.435514	0.0588027	-0.0209646	0.0974575	0.319478	0.195356	-0.0120065	-0.456556	-0.236834	-0.0872913	-0.023484	-0.243513	0.0997202	0.735605	2.16401	0.0625545	-0.257625	-0.0928457	0.618322	2.0853
1.74	0.0716782	0.0330788	-0.0325407	1.2591	0.902834	-0.222737	0.330529	0.0117024	-0.0536464	0.133525	0.125023	-0.00360355	-0.0120021	-0.436632	0.0442027	-0.0401853	0.125764	0.316051	0.216585	-0.012003	-0.45295	-0.21412	-0.078376	-0.022428	-0.245169	0.095275	0.73135	2.16471	0.052851	-0.251422	-0.095191	0.604232	2.08515
1.75	0.0721078	0.022498	-0.0296446	1.27167	0.902624	-0.222501	0.333207	0.0201705	-0.0609756	0.164836	0.10875	-0.0134895	-0.0119987	-0.432943	0.0277134	-0.0604991	0.159795	0.309388	0.237281	-0.0119995	-0.447795	-0.190415	-0.0690878	-0.0212819	-0.246885	0.090866	0.727507	2.16443	0.0426061	-0.245056	-0.0980464	0.591431	2.08422
1.76	0.071252	0.0107605	-0.0272093	1.28424	0.902528	-0.222209	0.337329	0.029472	-0.0698301	0.197302	0.0962772	-0.0203271	-0.0119953	-0.424459	0.00904847	-0.0811834	0.199713	0.298498	0.256204	-0.011996	-0.441215	-0.165504	-0.0594683	-0.0201344	-0.248745	0.0863769	0.724427	2.16326	0.0317946	-0.238424	-0.101605	0.580077	2.08282
1.77	0.0692478	-0.00230399	-0.0252337	1.29681	0.902555	-0.221866	0.342125	0.0398862	-0.0798487	0.229666	0.0887661	-0.0242321	-0.0119918	-0.411283	-0.0120149	-0.101503	0.245529	0.282453	0.272062	-0.0119925	-0.433357	-0.139203	-0.0495627	-0.0190889	-0.250839	0.0817455	0.722425	2.16144	0.0204256	-0.231462	-0.105973	0.570279	2.08137
1.78	0.0662224	-0.0167756	-0.0237099	1.30937	0.902705	-0.221475	0.346779	0.051679	-0.090476	0.260531	0.0866854	-0.0255658	-0.0119884	-0.393566	-0.035567	-0.120752	0.297074	0.260536	0.28364	-0.011989	-0.424357	-0.111438	-0.0394224	-0.0182453	-0.253241	0.0769871	0.721744	2.1593	0.00856134	-0.224179	-0.111121	0.562108	2.08027
1.79	0.0622625	-0.0325954	-0.0226205	1.32191	0.902974	-0.221036	0.350552	0.0650299	-0.101037	0.288502	0.0897852	-0.024893	-0.011985	-0.371451	-0.0615054	-0.138288	0.353988	0.232401	0.28994	-0.0119855	-0.41432	-0.0822932	-0.0291146	-0.0176808	-0.255999	0.0722003	0.722531	2.15716	-0.00366824	-0.216668	-0.116866	0.555605	2.07988
1.8	0.0574069	-0.0495375	-0.0219288	1.33439	0.903349	-0.220551	0.352889	0.0799624	-0.110851	0.31236	0.0972138	-0.022894	-0.0119816	-0.345068	-0.0894993	-0.153541	0.415713	0.198234	0.290311	-0.011982	-0.403318	-0.0520498	-0.0187337	-0.0174346	-0.25912	0.0675554	0.724829	2.1553	-0.0160614	-0.209114	-0.122876	0.5508	2.08047
1.81	0.0516658	-0.067212	-0.0215631	1.34681	0.903811	-0.220025	0.353472	0.0962964	-0.119353	0.331225	0.107735	-0.0202546	-0.0119781	-0.314544	-0.118983	-0.166006	0.481494	0.158853	0.284535	-0.0119786	-0.391415	-0.0211738	-0.00841125	-0.0174968	-0.262569	0.063269	0.728573	2.15388	-0.0283525	-0.201772	-0.128714	0.547718	2.08223
